<?xml version="1.0" encoding="UTF-8"?><svg id="Icon" xmlns="http://www.w3.org/2000/svg" viewBox="0 0 46.5 49.55">
	<defs>
		<style>
			.cls-1 {
				fill: #0055b7;
			}

			.cls-2 {
				fill: #0c2344;
			}

			.cls-3 {
				fill: #6ec4e8;
			}
		</style>
	</defs>
	<g>
		<polygon class="cls-2" points="7.55 24.74 8.82 27.31 9.72 26.87 8.45 24.3 7.55 24.74" />
		<polygon class="cls-2" points="12.63 35.04 13.9 37.61 14.79 37.17 13.52 34.59 12.63 35.04" />
		<polygon class="cls-2" points="5.01 19.59 6.28 22.16 7.18 21.72 5.91 19.15 5.01 19.59" />
		<polygon class="cls-2" points="10.09 29.89 11.36 32.46 12.26 32.02 10.99 29.44 10.09 29.89" />
		<polygon class="cls-2" points="34.74 28.42 36.73 30.7 37.48 30.05 35.5 27.76 34.74 28.42" />
		<polygon class="cls-2" points="22.83 14.71 24.82 16.99 25.57 16.34 23.59 14.05 22.83 14.71" />
		<polygon class="cls-2" points="26.8 19.28 28.79 21.56 29.54 20.91 27.56 18.62 26.8 19.28" />
		<polygon class="cls-2" points="18.86 10.14 20.85 12.42 21.6 11.77 19.62 9.48 18.86 10.14" />
		<polygon class="cls-2" points="39.47 32.33 38.71 32.99 40.7 35.27 41.45 34.62 39.47 32.33" />
		<polygon class="cls-2" points="30.77 23.85 32.76 26.13 33.51 25.48 31.53 23.19 30.77 23.85" />
		<path class="cls-2"
			d="M16.75,6.18c-.12-.42-.27-.82-.45-1.21-.02-.05-.05-.1-.07-.15-.16-.34-.35-.66-.55-.97-.05-.08-.11-.17-.17-.25-.2-.28-.41-.54-.64-.8-.07-.08-.14-.16-.22-.23-.25-.25-.51-.49-.78-.71-.04-.03-.07-.07-.11-.1-.03-.02-.06-.03-.08-.05-.29-.22-.6-.42-.92-.6-.04-.02-.09-.05-.13-.08-.35-.19-.71-.35-1.08-.49-.04-.01-.07-.03-.11-.04-.38-.14-.78-.25-1.19-.33-.03,0-.06-.01-.09-.02-.42-.08-.84-.13-1.28-.14-.01,0-.02,0-.04,0-.1-.01-.2-.01-.3-.01-.19,0-.38,.01-.56,.02-.04,0-.08,.01-.12,.01-.19,.02-.38,.04-.56,.07-.1,.01-.2,.03-.3,.05-.19,.04-.38,.08-.56,.13-.09,.02-.19,.05-.28,.07-.17,.05-.34,.11-.51,.17-.11,.04-.21,.07-.32,.12-.12,.05-.24,.11-.37,.16-.11,.05-.23,.1-.33,.15-.03,.02-.06,.04-.1,.06-.15,.08-.3,.18-.45,.27-.03,.02-.06,.03-.09,.05h-.01c-.23,.16-.46,.32-.67,.48l-.03,.02c-.22,.18-.44,.36-.64,.56h0c-.86,.83-1.54,1.84-1.99,2.96-.02,.05-.04,.11-.06,.16-.1,.25-.18,.51-.25,.77-.02,.08-.04,.16-.06,.24-.06,.24-.11,.49-.14,.74-.01,.09-.03,.17-.04,.26-.04,.33-.06,.66-.06,1,0,.75,.11,1.48,.29,2.18,.03,.1,.05,.2,.08,.3,.04,.13,.09,.26,.14,.39,.04,.12,.09,.25,.14,.37,.05,.12,.1,.24,.16,.35,.06,.13,.12,.25,.18,.37,.06,.11,.12,.22,.18,.32,.07,.12,.15,.25,.23,.37,.06,.1,.13,.2,.19,.29,.09,.13,.19,.25,.29,.38,.06,.08,.12,.16,.19,.24,.17,.2,.34,.39,.53,.57l1.16,2.36,.89-.45-.29-.59c.31,.17,.62,.33,.95,.46,.06,.03,.13,.04,.19,.07,.26,.1,.53,.2,.8,.27,.16,.04,.32,.07,.48,.1,.18,.04,.36,.08,.54,.11,.25,.04,.51,.05,.76,.06,.08,0,.16,.02,.24,.02,.07,.01,.15,.01,.22,.01,.22,0,.43-.01,.64-.02,.05,0,.11-.02,.16-.02,.1,0,.2-.03,.3-.04,.19-.02,.37-.05,.55-.08,.12-.02,.23-.05,.34-.08,.16-.04,.32-.07,.47-.12,.14-.04,.28-.1,.42-.15,.12-.04,.24-.08,.36-.13,.16-.06,.31-.14,.46-.21,.09-.04,.18-.08,.26-.12,.01,0,.03-.02,.04-.03,.16-.09,.32-.19,.48-.28,.04-.03,.08-.05,.12-.07h.02c.19-.14,.38-.27,.56-.41,.06-.04,.12-.09,.18-.13,.14-.11,.27-.23,.4-.35,.09-.08,.18-.15,.26-.23,.1-.1,.19-.21,.29-.32,.11-.12,.23-.25,.33-.38,.16-.2,.31-.4,.45-.61h0c.03-.05,.06-.11,.09-.16,.11-.18,.23-.36,.33-.54,0-.01,.01-.02,.02-.03,.03-.05,.05-.11,.08-.17,.11-.21,.21-.43,.3-.66,.04-.1,.07-.2,.11-.3,.07-.2,.14-.41,.2-.61,.03-.11,.06-.22,.08-.32,.05-.22,.09-.44,.13-.67,.01-.1,.03-.19,.04-.29,.04-.32,.06-.65,.06-.98,0-.28-.01-.56-.04-.83l.59-.51-.88-1.02ZM5.41,15.39s-.07-.03-.1-.05c-.33-.16-.65-.34-.96-.54-.04-.03-.07-.05-.11-.08-.3-.21-.6-.44-.87-.69v-.03h-.02c-1.45-1.36-2.36-3.31-2.36-5.46,0-.27,.01-.53,.04-.79,0-.06,.02-.12,.03-.19,.03-.2,.05-.39,.09-.58,.01-.07,.04-.14,.05-.21,.04-.18,.09-.36,.14-.53,.03-.08,.06-.16,.09-.24,.06-.16,.11-.31,.18-.46,0-.01,.01-.03,.02-.04l6.08,10.53c-.81-.09-1.59-.31-2.3-.64Zm6.53-.13c-.21,.11-.43,.21-.66,.3-.06,.02-.13,.05-.19,.07-.19,.07-.38,.13-.57,.18-.09,.02-.18,.05-.27,.07-.18,.04-.36,.07-.54,.1-.1,.02-.2,.03-.3,.05-.2,.02-.41,.04-.62,.04-.07,0-.13,0-.2,0L2.05,4.71s.04-.06,.06-.09c.11-.18,.23-.36,.36-.53,.05-.06,.09-.13,.14-.19,.13-.17,.27-.33,.42-.49,.04-.04,.08-.09,.12-.13,.4-.41,.85-.77,1.33-1.08l7.53,13.03s-.04,.02-.06,.03Zm2.68-2.28s-.06,.08-.09,.12c-.15,.19-.3,.38-.47,.56-.03,.03-.05,.06-.08,.09-.4,.42-.85,.79-1.34,1.11L5.13,1.82s.05-.02,.07-.03c.21-.1,.42-.2,.64-.28,.06-.02,.12-.04,.18-.07,.2-.07,.4-.13,.6-.19,.07-.02,.15-.04,.22-.06,.2-.05,.41-.08,.61-.11,.08-.01,.15-.03,.23-.03,.28-.03,.56-.05,.85-.05h.01l6.52,11.29c-.13,.24-.29,.47-.45,.69Zm.85-1.48L9.45,1.07s.03,0,.05,0c.2,.03,.39,.07,.58,.11,.14,.03,.28,.05,.42,.09,.18,.05,.35,.11,.52,.17,.15,.05,.29,.1,.43,.16,.16,.07,.31,.14,.46,.21,.15,.08,.3,.15,.44,.24,.13,.08,.27,.16,.39,.25,.15,.1,.3,.21,.44,.32,.11,.09,.22,.17,.33,.27,.15,.13,.29,.28,.43,.42,.09,.09,.18,.17,.26,.27,.15,.17,.29,.36,.43,.55,.06,.08,.12,.15,.17,.23,.18,.28,.35,.56,.5,.86,.23,.45,.41,.93,.53,1.43,.17,.6,.25,1.24,.25,1.89,0,1.05-.22,2.05-.6,2.95Z" />
	</g>
	<path class="cls-3"
		d="M30.16,48.3c-8.46,0-15.09-3.48-15.09-7.92s6.63-7.92,15.09-7.92,15.09,3.48,15.09,7.92h-1.5c0-3.48-6.22-6.42-13.59-6.42s-13.59,2.94-13.59,6.42,6.22,6.42,13.59,6.42v1.5Z" />
	<path class="cls-1" d="M30.16,49.55v-4c7.65,0,12.34-3.01,12.34-5.17h4c0,5.23-7.02,9.17-16.34,9.17Z" />
</svg>