<?xml version="1.0" encoding="UTF-8"?><svg id="Icons" xmlns="http://www.w3.org/2000/svg" viewBox="0 0 12.87 12.88"><defs><style>.cls-1{fill:#002145;}</style></defs><g id="External_Link"><path id="Icon" class="cls-1" d="M12.42,12.87H6.04c-.25,0-.45-.2-.45-.45,0-.25,.2-.45,.45-.45h5.94V.9H.9V6.84c0,.25-.2,.45-.45,.45-.25,0-.45-.2-.45-.45H0V.45C0,.2,.2,0,.45,0H12.42c.25,0,.45,.2,.45,.45V12.42c0,.25-.2,.45-.45,.45Zm-11.65-.13l4.03-4.03v2.51c0,.25,.2,.45,.45,.45,.25,0,.45-.2,.45-.45v-3.59h0c0-.06-.01-.11-.04-.17h0c-.02-.05-.05-.1-.09-.14h0s-.09-.08-.14-.1h0c-.05-.02-.11-.03-.16-.04H1.66c-.25,0-.45,.2-.45,.45,0,.25,.2,.45,.45,.45h2.5L.13,12.11c-.17,.18-.17,.46,0,.63,.08,.09,.2,.13,.32,.13,.12,0,.23-.05,.32-.14Z"/></g></svg>