<?xml version="1.0" encoding="UTF-8"?><svg xmlns="http://www.w3.org/2000/svg" viewBox="0 0 58 58"><defs><style>.cls-1{fill:#0055b7;}.cls-2{fill:#002147;}.cls-3{fill:#fff;}.cls-4{fill:#40b4e5;}</style></defs><g id="Icon_Background"><g><rect class="cls-4" x="0" y="0" width="58" height="58" rx="28.99" ry="28.99" transform="translate(58 58) rotate(180)"/><polyline class="cls-1" points="0 29 0 0 58 0 58 29"/></g></g><g id="Icon"><circle class="cls-3" cx="38.2" cy="13.4" r="5.86"/><path class="cls-3" d="M49.94,38.05H26.45c.19-8.33,1.61-15.54,11.75-15.54s11.55,7.2,11.74,15.54Z"/><circle class="cls-2" cx="20.58" cy="17.48" r="5.86"/><path class="cls-2" d="M32.33,42.14H8.84c.19-8.33,1.61-15.54,11.75-15.54s11.55,7.2,11.74,15.54Z"/><path class="cls-2" d="M24.71,32.27l9.52,1.83c1.05,.2,2.07,.24,2.91-.58,.33-.32,.62-.69,.93-1.03l4.02-4.42,3.06-3.37c.91-1,.99-2.55,0-3.54-.92-.92-2.62-1-3.54,0l-8.04,8.83,2.43-.64-9.98-1.92c-1.32-.25-2.7,.37-3.08,1.75-.34,1.22,.41,2.82,1.75,3.08h0Z"/></g></svg>