<?xml version="1.0" encoding="UTF-8"?><svg xmlns="http://www.w3.org/2000/svg" xmlns:xlink="http://www.w3.org/1999/xlink"
	viewBox="0 0 1200 700">
	<defs>
		<style>
			.cls-1,
			.cls-2,
			.cls-3,
			.cls-4,
			.cls-5,
			.cls-6 {
				fill: none;
			}

			.cls-7 {
				clip-path: url(#clippath);
			}

			.cls-2 {
				stroke: #97d4e9;
				stroke-width: 120px;
			}

			.cls-2,
			.cls-3,
			.cls-4,
			.cls-5,
			.cls-6 {
				stroke-miterlimit: 10;
			}

			.cls-8 {
				clip-path: url(#clippath-4);
			}

			.cls-9 {
				clip-path: url(#clippath-3);
			}

			.cls-10 {
				clip-path: url(#clippath-2);
			}

			.cls-11 {
				clip-path: url(#clippath-6);
			}

			.cls-12 {
				clip-path: url(#clippath-5);
			}

			.cls-3 {
				opacity: .2;
			}

			.cls-3,
			.cls-4 {
				stroke-width: 240px;
			}

			.cls-3,
			.cls-6 {
				stroke: #fff;
			}

			.cls-4 {
				opacity: .4;
			}

			.cls-4,
			.cls-5 {
				stroke: #00a7e1;
			}
		</style>
		<clipPath id="clippath">
			<rect class="cls-1" x="-293.86" y="1108.06" width="900" height="506" />
		</clipPath>
		<clipPath id="clippath-2">
			<rect class="cls-1" x="-2.17" y=".52" width="1200" height="699.48"
				transform="translate(1195.66 700.52) rotate(180)" />
		</clipPath>
		<clipPath id="clippath-3">
			<rect class="cls-1" x="-2.17" y=".52" width="1200" height="699.48"
				transform="translate(1195.66 700.52) rotate(180)" />
		</clipPath>
		<clipPath id="clippath-4">
			<rect class="cls-1" x="-1318.41" y=".52" width="1244.13" height="699.48" />
		</clipPath>
		<clipPath id="clippath-5">
			<rect class="cls-1" x="-1296.34" y=".52" width="1200" height="699.48"
				transform="translate(-1392.68 700.52) rotate(180)" />
		</clipPath>
		<clipPath id="clippath-6">
			<rect class="cls-1" x="665.37" y="1110.56" width="900" height="506"
				transform="translate(2230.73 2727.13) rotate(180)" />
		</clipPath>
	</defs>
	<g id="Layer_10">
		<g class="cls-7">
			<line class="cls-4" x1="380.76" y1="154.16" x2="380.76" y2="2026.18" />
		</g>
	</g>
	<g id="Layer_8">
		<g>
			<g class="cls-10">
				<path class="cls-3" d="M371.77,1246.67h0C65.83,519.55,407.25-317.91,1134.36-623.86h0l2001.12-842.01" />
			</g>
			<g class="cls-9">
				<path class="cls-2" d="M-2.17,357.66h0c189.07,0,342.34,153.27,342.34,342.34h0" />
				<path class="cls-5" d="M-2.17,357.66h0c189.07,0,342.34,153.27,342.34,342.34h0" />
			</g>
			<path class="cls-6" d="M-2.17,248.5h0c249.35,0,451.5,202.14,451.5,451.5h0" />
		</g>
		<g>
			<g class="cls-8">
				<g id="fGfsy5"></g>
				<g class="cls-12">
					<path class="cls-3"
						d="M-922.4,1246.67h0c-305.95-727.12,35.47-1564.58,762.59-1870.53h0l2001.12-842.01" />
				</g>
			</g>
		</g>
		<g id="Layer_5">
			<g class="cls-11">
				<path class="cls-3" d="M1167.97,2026.57h0c-229.46-545.34,26.61-1173.43,571.94-1402.9h0L3240.75-7.84" />
			</g>
		</g>
</svg>