<svg id="Layer_1" data-name="Layer 1" xmlns="http://www.w3.org/2000/svg" viewBox="0 0 980 735.1">
  <defs>
    <style>
      .cls-1{fill:#002145}
    </style>
  </defs>
  <circle class="cls-1" cx="183.8" cy="183.8" r="81.7" transform="rotate(-45 183.801 183.797)"/>
  <path class="cls-1" d="M827.52 386.84c-9.95 0-18.46 7.24-21 21.9h41.62c-1.98-13.94-8.14-21.9-20.62-21.9ZM209.73 439.14c0 7.05 4.7 11.58 12.84 11.58 9.41 0 18.46-4.71 25.7-12.13v-20.08c-31.85 3.07-38.54 11.76-38.54 20.63ZM592.64 387.56c-15.57 0-23.35 13.58-23.35 31.67 0 17.73 8.15 31.49 23.35 31.49 15.92 0 23.88-13.39 23.88-31.49 0-17.73-8.32-31.67-23.88-31.67ZM728.72 449.81c9.95 0 17.55-6 24.43-15.2v-41.26c-6.7-3.43-11.95-4.88-21.18-4.88-13.57 0-23.34 11-23.34 32.39 0 19 8.51 28.95 20.09 28.95ZM405.16 386.84c-10 0-18.45 7.24-21 21.9h41.62c-1.98-13.94-8.13-21.9-20.62-21.9Z"/>
  <path class="cls-1" d="m408.3 367.5-102-81.7-133.85 107.11v69.39h-16.11v-56.51L102.1 449.2V633h775.8V326.7L673.7 142.9Zm-143.93 94.8h-13l-1.8-11.58c-6.88 7-16.29 13.39-30.4 13.39-15.57 0-25.34-9.41-25.34-24.07 0-21.53 18.46-30 54.47-33.84v-3.62c0-10.85-6.52-14.65-16.47-14.65-10.49 0-20.45 3.25-29.86 7.42l-2.17-13.94c10.32-4.16 20.09-7.24 33.48-7.24 21 0 31.12 8.51 31.12 27.69Zm60.26 1.81c-23.16 0-40.17-16.11-40.17-44.88 0-29.31 18.1-45.06 41.26-45.06 12.48 0 21.71 3.8 27.5 8l-2.35 15.74c-7.42-6-15.38-9.59-25.33-9.59-14.84 0-24.79 10.86-24.79 30.76 0 21 10.85 30.94 25.33 30.94a37.78 37.78 0 0 0 25.7-9.59l2.35 14.84c-7.96 5.94-17.19 8.84-29.5 8.84Zm117.45-43.25h-58.63c.54 20.09 10.13 29.5 25.15 29.5 12.49 0 21.53-4.89 30.94-12.31l2.36 14.48c-9.23 7.24-20.27 11.58-34.57 11.58-22.43 0-40-13.57-40-45.24 0-27.69 16.29-44.7 38-44.7 25.16 0 36.74 19.37 36.74 43.25Zm90.84 41.44h-16.11v-58.81c0-8.87-3.8-14.84-13.21-14.84-8.5 0-17.19 5.61-25 13.93v59.72h-16.1V334.18l16.1-2.53v55.73c7.06-6.33 17-13.21 29.32-13.21 16.28 0 25 9.78 25 25.34Zm59.72 1.81c-23 0-39.63-16.47-39.63-44.88s16.64-45.06 39.63-45.06c23.16 0 40.17 16.65 40.17 45.06s-17.01 44.88-40.17 44.88Zm78-1.81h-16.1V334.18l16.1-2.53Zm157.06-88.13c25.15 0 36.73 19.37 36.73 43.25v3.44h-58.62c.54 20.09 10.13 29.5 25.15 29.5 12.48 0 21.53-4.89 30.94-12.31l2.35 14.48c-9.22 7.24-20.26 11.58-34.56 11.58-22.44 0-40-13.57-40-45.24.01-27.69 16.31-44.7 38.01-44.7Zm-96.27.73a60.75 60.75 0 0 1 21.72 3.8v-44.52l16.1-2.53V462.3H756.4l-2-12.49c-6.51 7.78-15.38 14.3-28 14.3-18.63 0-34-13.57-34-42.53-.05-31.48 18.04-46.68 39.03-46.68Z"/>
  <path class="cls-1" d="M871.1 0H108.9C49 0 0 49 0 108.9v517.3c0 59.9 49 108.9 108.9 108.9h762.2c59.9 0 108.9-49 108.9-108.9V108.9C980 49 931 0 871.1 0Zm68.1 614.8c0 54.9-24.5 79.4-79.4 79.4H120.3c-54.9 0-79.4-24.5-79.4-79.4V120.2c0-54.9 24.5-79.4 79.4-79.4h739.5c54.9 0 79.4 24.5 79.4 79.4Z"/>
  <path class="cls-1" d="M135.89 373.45c0-23.16-15.92-36-42.34-36H60.43V462.3h17v-50.67h13.22c27.15 0 45.24-12.63 45.24-38.18Zm-44.33 23.16H77.44v-44.15h15.2c17 0 26.06 7.24 26.06 21.53 0 15.57-10.13 22.62-27.14 22.62ZM172.45 331.65l-16.11 2.53v71.62l16.11-12.89v-61.26zM900.45 393.54 897.73 376h-12.84v86.3H901v-51c5.79-11.4 17.91-21 32.21-21.71l-2.53-15.39c-14.13.7-24.08 9.56-30.23 19.34Z"/>
</svg>
