<?xml version="1.0" encoding="UTF-8"?><svg xmlns="http://www.w3.org/2000/svg" viewBox="0 0 58 58"><defs><style>.cls-1{fill:#0055b7;}.cls-2{fill:#002147;}.cls-3{fill:#fff;}.cls-4{fill:#40b4e5;}</style></defs><g id="Icon_Background"><g><rect class="cls-4" x="0" y="0" width="58" height="58" rx="28.99" ry="28.99" transform="translate(58 58) rotate(180)"/><polyline class="cls-1" points="0 29 0 0 58 0 58 29"/></g></g><g id="Icon"><g><path class="cls-2" d="M47.98,10.49V31.04c0,1.02-.9,1.85-2,1.85H12.02c-1.11,0-2-.83-2-1.85V10.49c0-1.02,.89-1.85,2-1.85H45.98c1.1,0,2,.82,2,1.85Z"/><rect class="cls-3" x="16.13" y="29.61" width="5.38" height="17.59" rx="1" ry="1" transform="translate(-19.59 57.22) rotate(-90)"/><rect class="cls-3" x="36.5" y="29.61" width="5.38" height="17.59" rx="1" ry="1" transform="translate(.78 77.59) rotate(-90)"/><circle class="cls-3" cx="29.39" cy="16.9" r="3.96"/><path class="cls-3" d="M37.32,32.88h-15.87c.13-5.63,1.09-9.82,7.94-9.82s7.8,4.19,7.93,9.82Z"/></g></g></svg>