<?xml version="1.0" encoding="UTF-8"?><svg xmlns="http://www.w3.org/2000/svg" viewBox="0 0 58 58"><defs><style>.cls-1{fill:#0055b7;}.cls-2{fill:#002147;}.cls-3{fill:#fff;}.cls-4{fill:#40b4e5;}.cls-5{fill:none;stroke:#fff;stroke-linecap:round;stroke-miterlimit:10;stroke-width:.75px;}</style></defs><g id="Icon_Background"><g><rect class="cls-4" x="0" y="0" width="58" height="58" rx="28.99" ry="28.99" transform="translate(58 58) rotate(180)"/><polyline class="cls-1" points="0 29 0 0 58 0 58 29"/></g></g><g id="Icon"><rect class="cls-3" x="12.64" y="11.92" width="32.4" height="32.64" rx="2.06" ry="2.06" transform="translate(57.08 -.59) rotate(90)"/><path class="cls-2" d="M26.42-.01h6.68V32.63h-6.68c-1.02,0-1.84-.83-1.84-1.84V1.83C24.58,.81,25.4-.01,26.42-.01Z" transform="translate(45.15 -12.53) rotate(90)"/><g><line class="cls-5" x1="20.58" y1="9.4" x2="20.58" y2="15.11"/><line class="cls-5" x1="37.1" y1="9.4" x2="37.1" y2="15.11"/></g><rect class="cls-4" x="16.12" y="23.49" width="7.36" height="7.36"/><rect class="cls-4" x="25.32" y="23.49" width="7.36" height="7.36"/><rect class="cls-4" x="34.52" y="23.49" width="7.36" height="7.36"/><rect class="cls-4" x="16.12" y="32.99" width="7.36" height="7.36"/><rect class="cls-4" x="25.32" y="32.99" width="7.36" height="7.36"/><rect class="cls-2" x="34.52" y="32.99" width="7.36" height="7.36"/><g><line class="cls-5" x1="39.66" y1="35.22" x2="36.75" y2="38.12"/><line class="cls-5" x1="39.66" y1="38.12" x2="36.75" y2="35.22"/></g></g></svg>