<?xml version="1.0" encoding="UTF-8"?><svg xmlns="http://www.w3.org/2000/svg" viewBox="0 0 58 58"><defs><style>.cls-1{fill:#0055b7;}.cls-2{fill:#002147;}.cls-3{fill:#fff;}.cls-4{fill:#40b4e5;}.cls-5{fill:none;stroke:#fff;stroke-miterlimit:10;stroke-width:4px;}</style></defs><g id="Icon_Background"><g><rect class="cls-4" x="0" y="0" width="58" height="58" rx="28.99" ry="28.99" transform="translate(58 58) rotate(180)"/><polyline class="cls-1" points="0 29 0 0 58 0 58 29"/></g></g><g id="Icon"><g><circle class="cls-2" cx="29.43" cy="21.31" r="10.56"/><g><line class="cls-5" x1="35.95" y1="32.87" x2="45.52" y2="42.43"/><path class="cls-3" d="M26.63,9.4c-7.81,0-14.14,6.33-14.14,14.14s6.33,14.14,14.14,14.14,14.14-6.33,14.14-14.14-6.33-14.14-14.14-14.14Zm0,25.13c-6.07,0-10.99-4.92-10.99-10.99s4.92-10.99,10.99-10.99,10.99,4.92,10.99,10.99-4.92,10.99-10.99,10.99Z"/></g></g></g></svg>