<?xml version="1.0" encoding="UTF-8"?><svg xmlns="http://www.w3.org/2000/svg" viewBox="0 0 58 58"><defs><style>.cls-1{fill:#0055b7;}.cls-2{fill:#002147;}.cls-3{fill:#fff;}.cls-4{fill:#40b4e5;}.cls-5{stroke:#002147;}.cls-5,.cls-6{fill:none;stroke-miterlimit:10;stroke-width:.75px;}.cls-6{stroke:#0055b7;stroke-linecap:round;}</style></defs><g id="Icon_Background"><g><rect class="cls-4" x="0" y="0" width="58" height="58" rx="28.99" ry="28.99" transform="translate(58 58) rotate(180)"/><polyline class="cls-1" points="0 29 0 0 58 0 58 29"/></g></g><g id="Icon"><g><rect class="cls-2" x="7.48" y="10.9" width="43.04" height="29.36"/><g><path class="cls-3" d="M25.22,7.74c2.09,0,3.78,1.69,3.78,3.78v26.61h-1.7c-.58-1.17-1.77-1.98-3.16-1.98H10.67V7.74h14.55Z"/><path class="cls-3" d="M32.78,7.74c-2.09,0-3.78,1.69-3.78,3.78v26.61h1.7c.58-1.17,1.77-1.98,3.16-1.98h13.47V7.74h-14.55Z"/></g><g><g><line class="cls-6" x1="32.37" y1="30" x2="43.26" y2="30"/><line class="cls-6" x1="32.37" y1="26" x2="43.26" y2="26"/><line class="cls-6" x1="32.37" y1="22" x2="43.26" y2="22"/><line class="cls-6" x1="32.37" y1="18" x2="43.26" y2="18"/><line class="cls-6" x1="32.37" y1="14" x2="43.26" y2="14"/></g><g><line class="cls-6" x1="14.74" y1="30" x2="25.63" y2="30"/><line class="cls-6" x1="14.74" y1="26" x2="25.63" y2="26"/><line class="cls-6" x1="14.74" y1="22" x2="25.63" y2="22"/><line class="cls-6" x1="14.74" y1="18" x2="25.63" y2="18"/><line class="cls-6" x1="14.74" y1="14" x2="25.63" y2="14"/></g></g></g><line class="cls-5" x1="29" y1="9.96" x2="29" y2="38.13"/><rect class="cls-2" x="24.48" y="38.4" width="8.96" height="3.12"/></g></svg>